<?xml version="1.0" encoding="utf-8"?>
<!-- Generator: Adobe Illustrator 24.0.1, SVG Export Plug-In . SVG Version: 6.00 Build 0)  -->
<svg version="1.1" id="Layer_1" xmlns="http://www.w3.org/2000/svg" xmlns:xlink="http://www.w3.org/1999/xlink" x="0px" y="0px"
	 viewBox="0 0 800 800" style="enable-background:new 0 0 800 800;" xml:space="preserve">
<path d="M280.1,713.8h26.1v-88.1h-26.1V713.8z M279.6,612.9h27.3v-22.6h-27.3V612.9z M400,541.9c107.8,0,161.7,0,195.2-33.5
	s33.5-87.4,33.5-195.2s0-161.7-33.5-195.2S507.8,84.5,400,84.5s-161.7,0-195.2,33.5s-33.5,87.4-33.5,195.2s0,161.7,33.5,195.2
	S292.2,541.9,400,541.9z M307.8,312.5c6.7-6.7,17.6-6.7,24.3,0l33.6,33.6l102.2-102.2c6.7-6.7,17.6-6.7,24.3,0s6.7,17.6,0,24.3
	L377.8,382.5c-6.7,6.7-17.6,6.7-24.3,0l-45.7-45.7C301.1,330.1,301.1,319.2,307.8,312.5z M171.3,619.6H205v94.2h27.6v-94.2h33.7
	v-26.8h-95V619.6z M524.9,713.8h27.6V592.9h-27.6V713.8z M368.9,648.3c5,0,8.8,1.1,11.6,3.5s4.7,5.2,5.7,8.4h26.4
	c-1-6-3.3-11.7-6.9-17.2c-3.6-5.5-8.5-10-14.7-13.6c-6.2-3.6-13.6-5.4-22.1-5.4c-8.8,0-16.7,2-23.7,6s-12.6,9.4-16.6,16.4
	s-6,14.8-6,23.4c0,8.6,2,16.4,6,23.4s9.6,12.4,16.6,16.4c7.1,4,15,6,23.7,5.9c8.6,0,16-1.8,22.2-5.4c6.2-3.5,11-8.1,14.6-13.6
	c3.6-5.5,5.9-11.3,6.9-17.4h-26.4c-1,3.4-2.9,6.4-5.7,8.8c-2.8,2.4-6.6,3.6-11.6,3.6c-5.7,0-10.4-2-14.3-6.1
	c-3.9-4.1-5.8-9.3-5.8-15.6s1.9-11.5,5.8-15.5C358.5,650.3,363.3,648.3,368.9,648.3z M628.8,650.4v-24.7h-19.9v-27.3h-26.1v27.3H569
	v24.7h13.7v39.4c0,7.7,2.2,13.7,6.6,17.8c4.4,4.1,10.8,6.2,19.2,6.2v0.1h20.3v-23.5H615c-2.2,0-3.8-0.5-4.7-1.4
	c-0.9-1-1.4-2.5-1.4-4.7v-33.9H628.8z M514.1,625.8h-29.5l-29.5,39v-71.9H429v120.9h26.1v-40.7l31.3,40.8h29.5L480.8,669
	L514.1,625.8z"/>
</svg>
