<?xml version="1.0" encoding="utf-8"?>
<!-- Generator: Adobe Illustrator 24.0.1, SVG Export Plug-In . SVG Version: 6.00 Build 0)  -->
<svg version="1.1" id="Layer_1" xmlns="http://www.w3.org/2000/svg" xmlns:xlink="http://www.w3.org/1999/xlink" x="0px" y="0px"
	 viewBox="0 0 800 800" style="enable-background:new 0 0 800 800;" xml:space="preserve">
<style type="text/css">
	.st0{fill-rule:evenodd;clip-rule:evenodd;}
</style>
<g>
	<g id="SVGRepo_iconCarrier">
		<path class="st0" d="M400,541.9c-107.8,0-161.7,0-195.2-33.5c-33.5-33.5-33.5-87.4-33.5-195.2c0-107.8,0-161.7,33.5-195.2
			c33.5-33.5,87.4-33.5,195.2-33.5c107.8,0,161.7,0,195.2,33.5c33.5,33.5,33.5,87.4,33.5,195.2c0,107.8,0,161.7-33.5,195.2
			C561.7,541.9,507.8,541.9,400,541.9z M492.2,243.9c6.7,6.7,6.7,17.6,0,24.3L377.8,382.5c-6.7,6.7-17.6,6.7-24.3,0l-45.7-45.7
			c-6.7-6.7-6.7-17.6,0-24.3c6.7-6.7,17.6-6.7,24.3,0l33.6,33.6l102.2-102.2C474.6,237.2,485.5,237.2,492.2,243.9z"/>
	</g>
	<g>
		<path d="M232.6,713.8H205v-94.2h-33.7v-26.8h95v26.8h-33.7V713.8z"/>
		<path d="M306.9,612.9h-27.3v-22.6h27.3V612.9z M306.2,713.8h-26.1v-88.1h26.1V713.8z"/>
		<path d="M345.2,709.6c-7-4-12.6-9.4-16.6-16.4c-4-7-6-14.8-6-23.4c0-8.6,2-16.4,6-23.4c4-7,9.6-12.4,16.6-16.4c7-4,14.9-6,23.7-6
			c8.5,0,15.9,1.8,22.1,5.4c6.2,3.6,11.1,8.1,14.7,13.6c3.6,5.5,5.9,11.2,6.9,17.2h-26.4c-1-3.2-2.9-6-5.7-8.4
			c-2.8-2.4-6.6-3.5-11.6-3.5c-5.6,0-10.4,2-14.3,6c-3.9,4-5.8,9.2-5.8,15.5c0,6.3,1.9,11.5,5.8,15.6c3.9,4.1,8.6,6.1,14.3,6.1
			c5,0,8.8-1.2,11.6-3.6c2.8-2.4,4.7-5.4,5.7-8.8h26.4c-1,6.1-3.3,11.9-6.9,17.4c-3.6,5.5-8.4,10.1-14.6,13.6
			c-6.2,3.6-13.6,5.4-22.2,5.4C360.2,715.6,352.3,713.6,345.2,709.6z"/>
		<path d="M455.1,713.8H429V592.9h26.1v71.9l29.5-39h29.5l-33.3,43.2l35.1,44.9h-29.5l-31.3-40.8V713.8z"/>
		<path d="M552.5,713.8h-27.6V592.9h27.6V713.8z"/>
		<path d="M608.5,713.8c-8.4,0-14.8-2.1-19.2-6.2c-4.4-4.1-6.6-10.1-6.6-17.8v-39.4H569v-24.7h13.8v-27.3h26.1v27.3h19.9v24.7h-19.9
			v33.9c0,2.2,0.5,3.7,1.4,4.7c0.9,0.9,2.5,1.4,4.7,1.4h13.8v23.5H608.5z"/>
	</g>
</g>
</svg>
